<svg width="20" height="14" viewBox="0 0 20 14" fill="none" xmlns="http://www.w3.org/2000/svg">
<path d="M18 1C18 1.55228 17.5523 2 17 2L1 2C0.447716 2 0 1.55229 0 1C0 0.447717 0.447716 0 1 0H17C17.5523 0 18 0.447715 18 1Z" fill="#F1F1F1"/>
<path d="M0 11C0 10.4477 0.447715 10 1 10H17C17.5523 10 18 10.4477 18 11C18 11.5523 17.5523 12 17 12H1C0.447715 12 0 11.5523 0 11Z" fill="#F1F1F1"/>
<path d="M17 7C17.5523 7 18 6.55228 18 6C18 5.44772 17.5523 5 17 5L1 5C0.447716 5 0 5.44772 0 6C0 6.55229 0.447716 7 1 7L17 7Z" fill="#F1F1F1"/>
</svg>
